# xmcd CD database file
#
# Track frame offsets:
#	150
#	15053
#	19633
#	31834
#	52547
#	59746
#	74329
#	90305
#	104986
#	210761
#	220217
#	237977
#	245301
#	254562
#	264854
#	279590
#	290815
#	309392
#
# Disc length: 4265 seconds
#
# Revision: 0
# Processed by: cddbd v1.5.2PL0 Copyright (c) Steve Scherf et al.
# Submitted via: CDex 1.51
#
DISCID=f410a712
DTITLE=Dave Ray - Fine Soft Land
DYEAR=1900
DGENRE=Blues
TTITLE0=Alabama Women
TTITLE1=Young Man
TTITLE2=Crying Shame
TTITLE3=Got To Live
TTITLE4=West Egg Rag
TTITLE5=How You Want Your Rolling Done
TTITLE6=Highway 51
TTITLE7=Tribute
TTITLE8=Baby Please Don't go
TTITLE9=Kid Man Blues
TTITLE10=Death Valley Blues
TTITLE11=If I Get Lucky
TTITLE12=Married Woman Blues
TTITLE13=Look Over Yonder's Wall
TTITLE14=You Can't Go
TTITLE15=Born To Surrender
TTITLE16=Fixin' To Die (bonus)
TTITLE17=Black Cat Bone (bonus)
EXTD=
EXTT0=
EXTT1=
EXTT2=
EXTT3=
EXTT4=
EXTT5=
EXTT6=
EXTT7=
EXTT8=
EXTT9=
EXTT10=
EXTT11=
EXTT12=
EXTT13=
EXTT14=
EXTT15=
EXTT16=
EXTT17=
PLAYORDER=
